<mxfile host="app.diagrams.net" modified="2022-06-22T06:41:38.083Z" agent="5.0 (Macintosh)" etag="FzgQUUiAc1jVliqf4J_T" version="20.0.1" type="github">
  <diagram id="ABwETxADjD8a5Jw3LQ5L" name="Page-1">
    <mxGraphModel dx="946" dy="600" grid="1" gridSize="10" guides="1" tooltips="1" connect="1" arrows="1" fold="1" page="1" pageScale="1" pageWidth="827" pageHeight="1169" background="#DAD2D8" math="0" shadow="0">
      <root>
        <mxCell id="0" />
        <mxCell id="1" parent="0" />
      </root>
    </mxGraphModel>
  </diagram>
</mxfile>
